<?xml version="1.0" encoding="UTF-8"?>
<svg xmlns="http://www.w3.org/2000/svg" xmlns:xlink="http://www.w3.org/1999/xlink" width="40px" height="40px" viewBox="0 0 40 40" version="1.1">
<g id="surface1">
<path style=" stroke:none;fill-rule:nonzero;fill:rgb(5.490196%,5.490196%,5.490196%);fill-opacity:1;" d="M 0 0 C 13.199219 0 26.398438 0 40 0 C 40 13.199219 40 26.398438 40 40 C 26.800781 40 13.601562 40 0 40 C 0 26.800781 0 13.601562 0 0 Z M 0 0 "/>
<path style=" stroke:none;fill-rule:nonzero;fill:rgb(0%,41.176471%,41.176471%);fill-opacity:1;" d="M 11.269531 5.769531 C 11.324219 5.769531 11.382812 5.769531 11.4375 5.769531 C 11.59375 5.769531 11.746094 5.769531 11.902344 5.769531 C 12.070312 5.769531 12.234375 5.769531 12.402344 5.769531 C 12.730469 5.769531 13.054688 5.769531 13.382812 5.769531 C 13.648438 5.769531 13.914062 5.769531 14.179688 5.769531 C 14.933594 5.765625 15.691406 5.765625 16.445312 5.765625 C 16.484375 5.765625 16.523438 5.765625 16.566406 5.765625 C 16.609375 5.765625 16.648438 5.765625 16.691406 5.765625 C 17.347656 5.765625 18.007812 5.765625 18.667969 5.765625 C 19.347656 5.765625 20.023438 5.761719 20.699219 5.761719 C 21.082031 5.761719 21.460938 5.761719 21.839844 5.761719 C 22.164062 5.761719 22.488281 5.761719 22.8125 5.761719 C 22.976562 5.761719 23.140625 5.761719 23.308594 5.761719 C 23.457031 5.761719 23.609375 5.761719 23.761719 5.761719 C 23.816406 5.761719 23.871094 5.761719 23.925781 5.761719 C 24.632812 5.757812 25.113281 6.039062 25.609375 6.523438 C 25.683594 6.601562 25.757812 6.675781 25.835938 6.75 C 25.890625 6.804688 25.945312 6.859375 26 6.914062 C 26.148438 7.0625 26.296875 7.210938 26.445312 7.359375 C 26.597656 7.515625 26.753906 7.671875 26.910156 7.828125 C 27.171875 8.089844 27.433594 8.347656 27.695312 8.609375 C 27.996094 8.914062 28.296875 9.214844 28.597656 9.515625 C 28.859375 9.773438 29.117188 10.035156 29.375 10.292969 C 29.53125 10.449219 29.6875 10.601562 29.839844 10.757812 C 29.988281 10.902344 30.132812 11.046875 30.277344 11.195312 C 30.328125 11.246094 30.382812 11.300781 30.4375 11.351562 C 30.972656 11.886719 31.414062 12.46875 31.414062 13.257812 C 31.414062 13.285156 31.414062 13.316406 31.414062 13.34375 C 31.414062 13.378906 31.414062 13.410156 31.414062 13.441406 C 31.414062 13.542969 31.414062 13.648438 31.414062 13.75 C 31.414062 13.824219 31.414062 13.894531 31.414062 13.96875 C 31.414062 14.15625 31.414062 14.347656 31.410156 14.535156 C 31.410156 14.726562 31.410156 14.921875 31.410156 15.113281 C 31.410156 15.492188 31.40625 15.871094 31.40625 16.25 C 31.378906 16.25 31.355469 16.25 31.328125 16.25 C 31.285156 16.207031 31.242188 16.160156 31.195312 16.117188 C 30.808594 15.738281 30.335938 15.484375 29.84375 15.273438 C 29.84375 14.628906 29.84375 13.984375 29.84375 13.320312 C 29.425781 13.324219 29.425781 13.324219 29 13.324219 C 28.824219 13.324219 28.644531 13.324219 28.46875 13.324219 C 28.1875 13.328125 27.90625 13.328125 27.625 13.328125 C 27.398438 13.332031 27.171875 13.332031 26.945312 13.332031 C 26.859375 13.332031 26.773438 13.332031 26.6875 13.332031 C 26.109375 13.335938 25.550781 13.339844 25.03125 13.0625 C 24.988281 13.042969 24.988281 13.042969 24.949219 13.019531 C 24.382812 12.714844 24.015625 12.214844 23.8125 11.613281 C 23.75 11.371094 23.746094 11.144531 23.746094 10.898438 C 23.746094 10.859375 23.746094 10.820312 23.746094 10.777344 C 23.746094 10.652344 23.746094 10.523438 23.746094 10.394531 C 23.746094 10.304688 23.746094 10.214844 23.746094 10.128906 C 23.746094 9.894531 23.746094 9.660156 23.746094 9.425781 C 23.746094 9.1875 23.746094 8.949219 23.75 8.710938 C 23.75 8.242188 23.75 7.773438 23.75 7.304688 C 22.125 7.304688 20.496094 7.308594 18.871094 7.3125 C 18.679688 7.3125 18.488281 7.3125 18.296875 7.3125 C 18.238281 7.3125 18.238281 7.3125 18.179688 7.3125 C 17.558594 7.3125 16.941406 7.316406 16.324219 7.316406 C 15.6875 7.316406 15.050781 7.316406 14.417969 7.320312 C 14.027344 7.320312 13.632812 7.320312 13.242188 7.320312 C 12.972656 7.320312 12.703125 7.320312 12.4375 7.320312 C 12.28125 7.320312 12.125 7.324219 11.972656 7.320312 C 11.828125 7.320312 11.6875 7.320312 11.542969 7.324219 C 11.46875 7.324219 11.394531 7.324219 11.316406 7.324219 C 11 7.324219 10.742188 7.367188 10.496094 7.578125 C 10.472656 7.601562 10.453125 7.628906 10.433594 7.652344 C 10.398438 7.691406 10.398438 7.691406 10.367188 7.730469 C 10.242188 7.914062 10.222656 8.082031 10.222656 8.300781 C 10.222656 8.328125 10.222656 8.359375 10.222656 8.386719 C 10.222656 8.484375 10.222656 8.582031 10.222656 8.679688 C 10.222656 8.75 10.222656 8.820312 10.222656 8.886719 C 10.21875 9.078125 10.21875 9.265625 10.21875 9.457031 C 10.21875 9.652344 10.21875 9.851562 10.214844 10.046875 C 10.214844 10.421875 10.210938 10.796875 10.210938 11.171875 C 10.210938 11.597656 10.207031 12.023438 10.207031 12.449219 C 10.203125 13.324219 10.199219 14.203125 10.195312 15.078125 C 10.175781 15.089844 10.152344 15.101562 10.132812 15.109375 C 10.035156 15.160156 9.941406 15.210938 9.84375 15.261719 C 9.792969 15.285156 9.792969 15.285156 9.742188 15.3125 C 9.402344 15.488281 9.070312 15.695312 8.796875 15.96875 C 8.710938 16.054688 8.710938 16.054688 8.632812 16.054688 C 8.628906 15.015625 8.628906 13.976562 8.625 12.9375 C 8.625 12.453125 8.625 11.972656 8.625 11.488281 C 8.621094 11.070312 8.621094 10.648438 8.621094 10.226562 C 8.621094 10.003906 8.621094 9.78125 8.621094 9.558594 C 8.621094 9.351562 8.621094 9.140625 8.621094 8.929688 C 8.621094 8.855469 8.621094 8.777344 8.617188 8.699219 C 8.613281 7.855469 8.730469 7.171875 9.308594 6.511719 C 9.875 5.941406 10.492188 5.769531 11.269531 5.769531 Z M 11.269531 5.769531 "/>
<path style=" stroke:none;fill-rule:nonzero;fill:rgb(98.823529%,98.823529%,98.823529%);fill-opacity:1;" d="M 8.632812 23.90625 C 8.683594 23.945312 8.734375 23.980469 8.78125 24.019531 C 8.808594 24.039062 8.839844 24.058594 8.867188 24.082031 C 8.929688 24.128906 8.988281 24.175781 9.050781 24.222656 C 9.367188 24.460938 9.703125 24.632812 10.066406 24.789062 C 10.109375 24.808594 10.152344 24.824219 10.195312 24.84375 C 10.195312 24.878906 10.195312 24.917969 10.195312 24.953125 C 10.195312 25.839844 10.199219 26.722656 10.203125 27.609375 C 10.203125 28.035156 10.207031 28.464844 10.207031 28.890625 C 10.207031 29.265625 10.207031 29.636719 10.210938 30.011719 C 10.210938 30.207031 10.210938 30.40625 10.210938 30.601562 C 10.210938 30.789062 10.210938 30.976562 10.210938 31.160156 C 10.210938 31.230469 10.214844 31.296875 10.210938 31.367188 C 10.207031 31.839844 10.207031 31.839844 10.390625 32.265625 C 10.402344 32.304688 10.417969 32.34375 10.429688 32.382812 C 10.503906 32.425781 10.503906 32.425781 10.585938 32.460938 C 10.609375 32.472656 10.628906 32.488281 10.652344 32.503906 C 10.964844 32.675781 11.320312 32.640625 11.664062 32.636719 C 11.738281 32.636719 11.816406 32.636719 11.890625 32.636719 C 12.09375 32.636719 12.300781 32.636719 12.503906 32.636719 C 12.726562 32.636719 12.949219 32.636719 13.167969 32.636719 C 13.601562 32.640625 14.035156 32.640625 14.46875 32.636719 C 14.820312 32.636719 15.175781 32.636719 15.527344 32.636719 C 15.601562 32.636719 15.601562 32.636719 15.679688 32.636719 C 15.78125 32.636719 15.882812 32.636719 15.984375 32.636719 C 16.910156 32.640625 17.839844 32.636719 18.769531 32.636719 C 19.613281 32.636719 20.460938 32.636719 21.308594 32.636719 C 22.261719 32.636719 23.210938 32.640625 24.164062 32.636719 C 24.265625 32.636719 24.367188 32.636719 24.46875 32.636719 C 24.519531 32.636719 24.566406 32.636719 24.621094 32.636719 C 24.972656 32.636719 25.324219 32.636719 25.675781 32.636719 C 26.105469 32.640625 26.53125 32.640625 26.960938 32.636719 C 27.179688 32.636719 27.398438 32.636719 27.617188 32.636719 C 27.820312 32.636719 28.019531 32.636719 28.21875 32.636719 C 28.292969 32.636719 28.363281 32.636719 28.4375 32.636719 C 29.019531 32.652344 29.019531 32.652344 29.527344 32.394531 C 29.742188 32.167969 29.824219 31.921875 29.820312 31.613281 C 29.820312 31.570312 29.820312 31.570312 29.820312 31.523438 C 29.820312 31.425781 29.820312 31.332031 29.820312 31.234375 C 29.820312 31.164062 29.824219 31.09375 29.824219 31.023438 C 29.824219 30.835938 29.824219 30.648438 29.824219 30.457031 C 29.824219 30.261719 29.824219 30.0625 29.828125 29.867188 C 29.828125 29.492188 29.828125 29.117188 29.832031 28.746094 C 29.832031 28.320312 29.832031 27.894531 29.835938 27.46875 C 29.839844 26.59375 29.839844 25.71875 29.84375 24.84375 C 29.886719 24.828125 29.929688 24.8125 29.972656 24.796875 C 30.027344 24.777344 30.085938 24.753906 30.140625 24.734375 C 30.167969 24.726562 30.195312 24.714844 30.226562 24.703125 C 30.613281 24.5625 30.9375 24.351562 31.25 24.085938 C 31.328125 24.023438 31.328125 24.023438 31.40625 23.984375 C 31.40625 25.003906 31.410156 26.027344 31.410156 27.046875 C 31.410156 27.519531 31.410156 27.996094 31.414062 28.46875 C 31.414062 28.882812 31.414062 29.292969 31.414062 29.707031 C 31.414062 29.925781 31.414062 30.144531 31.414062 30.363281 C 31.414062 30.570312 31.414062 30.777344 31.414062 30.980469 C 31.414062 31.058594 31.414062 31.132812 31.414062 31.207031 C 31.417969 32.113281 31.28125 32.808594 30.65625 33.496094 C 30.472656 33.675781 30.273438 33.804688 30.046875 33.921875 C 30.023438 33.933594 30 33.945312 29.972656 33.960938 C 29.488281 34.191406 28.984375 34.195312 28.460938 34.195312 C 28.386719 34.195312 28.308594 34.195312 28.234375 34.195312 C 28.023438 34.195312 27.816406 34.195312 27.609375 34.195312 C 27.382812 34.195312 27.160156 34.195312 26.933594 34.195312 C 26.496094 34.195312 26.054688 34.195312 25.613281 34.195312 C 25.257812 34.195312 24.898438 34.195312 24.542969 34.195312 C 24.464844 34.195312 24.464844 34.195312 24.386719 34.195312 C 24.285156 34.195312 24.179688 34.195312 24.078125 34.195312 C 23.136719 34.195312 22.191406 34.195312 21.25 34.195312 C 20.390625 34.195312 19.53125 34.195312 18.671875 34.195312 C 17.707031 34.195312 16.738281 34.195312 15.773438 34.195312 C 15.667969 34.195312 15.566406 34.195312 15.464844 34.195312 C 15.414062 34.195312 15.363281 34.195312 15.308594 34.195312 C 14.953125 34.195312 14.59375 34.195312 14.238281 34.195312 C 13.804688 34.195312 13.367188 34.195312 12.933594 34.195312 C 12.710938 34.195312 12.488281 34.195312 12.265625 34.195312 C 12.0625 34.195312 11.859375 34.195312 11.65625 34.195312 C 11.582031 34.195312 11.507812 34.195312 11.4375 34.195312 C 10.621094 34.199219 9.925781 34.058594 9.324219 33.464844 C 8.832031 32.945312 8.625 32.363281 8.628906 31.652344 C 8.628906 31.617188 8.628906 31.585938 8.628906 31.550781 C 8.628906 31.441406 8.628906 31.328125 8.628906 31.21875 C 8.628906 31.140625 8.628906 31.058594 8.628906 30.980469 C 8.628906 30.765625 8.628906 30.546875 8.628906 30.332031 C 8.628906 30.105469 8.628906 29.878906 8.628906 29.652344 C 8.628906 29.226562 8.628906 28.796875 8.628906 28.371094 C 8.628906 27.882812 8.628906 27.398438 8.628906 26.910156 C 8.632812 25.910156 8.632812 24.90625 8.632812 23.90625 Z M 8.632812 23.90625 "/>
<path style=" stroke:none;fill-rule:nonzero;fill:rgb(98.823529%,98.823529%,98.823529%);fill-opacity:1;" d="M 25.039062 15.976562 C 29.773438 15.976562 29.773438 15.976562 30.535156 16.699219 C 30.9375 17.132812 31.117188 17.65625 31.09375 18.242188 C 31.027344 18.796875 30.796875 19.25 30.367188 19.617188 C 30.273438 19.6875 30.179688 19.746094 30.078125 19.804688 C 30.128906 19.832031 30.128906 19.832031 30.175781 19.863281 C 30.765625 20.214844 31.191406 20.605469 31.367188 21.289062 C 31.476562 21.910156 31.386719 22.492188 31.03125 23.019531 C 30.640625 23.550781 30.066406 23.90625 29.414062 24.023438 C 29.171875 24.058594 28.9375 24.066406 28.691406 24.066406 C 28.652344 24.066406 28.613281 24.066406 28.570312 24.066406 C 28.441406 24.066406 28.3125 24.066406 28.183594 24.066406 C 28.101562 24.066406 28.023438 24.066406 27.941406 24.066406 C 27.644531 24.066406 27.347656 24.066406 27.050781 24.066406 C 26.054688 24.0625 26.054688 24.0625 25.039062 24.0625 C 25.039062 21.394531 25.039062 18.726562 25.039062 15.976562 Z M 25.039062 15.976562 "/>
<path style=" stroke:none;fill-rule:nonzero;fill:rgb(0%,41.176471%,41.176471%);fill-opacity:1;" d="M 19.179688 16.015625 C 19.875 16.015625 20.570312 16.015625 21.289062 16.015625 C 21.558594 16.730469 21.558594 16.730469 21.648438 16.984375 C 21.667969 17.042969 21.691406 17.101562 21.710938 17.160156 C 21.722656 17.1875 21.730469 17.21875 21.742188 17.25 C 21.953125 17.835938 21.953125 17.835938 22.175781 18.414062 C 22.304688 18.738281 22.414062 19.0625 22.527344 19.390625 C 22.652344 19.769531 22.789062 20.140625 22.9375 20.507812 C 23.0625 20.824219 23.179688 21.144531 23.289062 21.464844 C 23.488281 22.035156 23.703125 22.601562 23.917969 23.171875 C 23.964844 23.304688 24.015625 23.4375 24.066406 23.570312 C 24.082031 23.609375 24.097656 23.648438 24.113281 23.691406 C 24.125 23.730469 24.140625 23.765625 24.15625 23.804688 C 24.167969 23.835938 24.179688 23.871094 24.191406 23.90625 C 24.21875 23.984375 24.21875 23.984375 24.21875 24.0625 C 23.613281 24.0625 23.007812 24.0625 22.382812 24.0625 C 22.113281 23.347656 22.113281 23.347656 22 23.019531 C 21.980469 22.953125 21.957031 22.890625 21.933594 22.824219 C 21.925781 22.796875 21.914062 22.769531 21.90625 22.738281 C 21.871094 22.644531 21.832031 22.554688 21.796875 22.460938 C 20.738281 22.449219 19.683594 22.433594 18.59375 22.421875 C 18.566406 22.539062 18.542969 22.652344 18.515625 22.773438 C 18.492188 22.839844 18.472656 22.90625 18.445312 22.972656 C 18.433594 23.003906 18.417969 23.039062 18.40625 23.074219 C 18.390625 23.105469 18.378906 23.140625 18.363281 23.175781 C 18.25 23.46875 18.148438 23.761719 18.046875 24.0625 C 17.453125 24.0625 16.859375 24.0625 16.25 24.0625 C 16.277344 23.929688 16.300781 23.820312 16.347656 23.699219 C 16.359375 23.664062 16.371094 23.632812 16.382812 23.597656 C 16.398438 23.5625 16.410156 23.527344 16.421875 23.492188 C 16.4375 23.457031 16.449219 23.417969 16.464844 23.378906 C 16.511719 23.257812 16.554688 23.132812 16.601562 23.011719 C 16.632812 22.921875 16.664062 22.835938 16.699219 22.75 C 16.796875 22.484375 16.894531 22.21875 16.992188 21.953125 C 17.019531 21.875 17.050781 21.796875 17.078125 21.722656 C 17.089844 21.683594 17.105469 21.648438 17.117188 21.609375 C 17.171875 21.464844 17.226562 21.320312 17.28125 21.175781 C 17.304688 21.105469 17.332031 21.03125 17.359375 20.960938 C 17.679688 20.097656 17.992188 19.234375 18.308594 18.367188 C 18.476562 17.894531 18.652344 17.421875 18.824219 16.949219 C 18.867188 16.835938 18.910156 16.71875 18.953125 16.605469 C 18.976562 16.535156 19.003906 16.464844 19.027344 16.398438 C 19.046875 16.351562 19.046875 16.351562 19.0625 16.304688 C 19.136719 16.101562 19.136719 16.101562 19.179688 16.015625 Z M 19.179688 16.015625 "/>
<path style=" stroke:none;fill-rule:nonzero;fill:rgb(0%,41.176471%,41.176471%);fill-opacity:1;" d="M 14.84375 16.484375 C 14.875 16.503906 14.902344 16.523438 14.933594 16.542969 C 14.996094 16.585938 15.058594 16.632812 15.117188 16.679688 C 15.117188 16.707031 15.117188 16.730469 15.117188 16.757812 C 15.140625 16.765625 15.164062 16.777344 15.1875 16.785156 C 15.585938 17.011719 15.867188 17.632812 15.992188 18.058594 C 16.050781 18.265625 16.070312 18.453125 16.09375 18.671875 C 15.5 18.671875 14.90625 18.671875 14.296875 18.671875 C 14.21875 18.476562 14.21875 18.476562 14.140625 18.28125 C 13.910156 17.890625 13.5625 17.636719 13.132812 17.496094 C 12.574219 17.359375 11.964844 17.417969 11.46875 17.710938 C 11.390625 17.765625 11.320312 17.824219 11.25 17.890625 C 11.226562 17.910156 11.203125 17.929688 11.179688 17.949219 C 10.636719 18.441406 10.425781 19.195312 10.382812 19.90625 C 10.363281 20.636719 10.546875 21.316406 10.976562 21.914062 C 10.996094 21.941406 11.011719 21.964844 11.03125 21.992188 C 11.285156 22.324219 11.703125 22.539062 12.109375 22.617188 C 12.742188 22.675781 13.292969 22.585938 13.796875 22.179688 C 14.058594 21.941406 14.175781 21.65625 14.296875 21.328125 C 14.875 21.328125 15.457031 21.328125 16.054688 21.328125 C 16.054688 22.097656 15.691406 22.710938 15.183594 23.261719 C 14.8125 23.621094 14.320312 23.875 13.828125 24.023438 C 13.773438 24.039062 13.773438 24.039062 13.71875 24.058594 C 12.695312 24.351562 11.5 24.261719 10.566406 23.75 C 10.382812 23.644531 10.207031 23.53125 10.039062 23.398438 C 10.003906 23.371094 9.96875 23.34375 9.933594 23.316406 C 9.164062 22.65625 8.6875 21.660156 8.601562 20.652344 C 8.546875 19.804688 8.585938 18.984375 8.945312 18.203125 C 8.957031 18.179688 8.96875 18.152344 8.980469 18.128906 C 9.347656 17.324219 9.894531 16.6875 10.664062 16.25 C 10.714844 16.21875 10.714844 16.21875 10.765625 16.191406 C 11.945312 15.550781 13.75 15.738281 14.84375 16.484375 Z M 14.84375 16.484375 "/>
<path style=" stroke:none;fill-rule:nonzero;fill:rgb(5.490196%,5.490196%,5.490196%);fill-opacity:1;" d="M 26.757812 20.703125 C 27.039062 20.699219 27.320312 20.695312 27.601562 20.695312 C 27.699219 20.695312 27.792969 20.691406 27.890625 20.691406 C 28.027344 20.6875 28.164062 20.6875 28.304688 20.6875 C 28.34375 20.6875 28.386719 20.6875 28.429688 20.683594 C 28.742188 20.683594 29.0625 20.722656 29.304688 20.9375 C 29.554688 21.199219 29.589844 21.464844 29.585938 21.816406 C 29.558594 22.058594 29.476562 22.21875 29.289062 22.375 C 29.074219 22.523438 28.882812 22.628906 28.617188 22.625 C 28.554688 22.625 28.554688 22.625 28.492188 22.625 C 28.425781 22.625 28.425781 22.625 28.355469 22.625 C 28.308594 22.625 28.265625 22.625 28.21875 22.625 C 28.070312 22.625 27.925781 22.625 27.78125 22.621094 C 27.683594 22.621094 27.582031 22.621094 27.484375 22.621094 C 27.242188 22.621094 27 22.617188 26.757812 22.617188 C 26.757812 21.984375 26.757812 21.355469 26.757812 20.703125 Z M 26.757812 20.703125 "/>
<path style=" stroke:none;fill-rule:nonzero;fill:rgb(5.882353%,5.882353%,5.882353%);fill-opacity:1;" d="M 26.757812 17.460938 C 27.035156 17.460938 27.3125 17.457031 27.597656 17.457031 C 27.683594 17.457031 27.769531 17.453125 27.859375 17.453125 C 27.929688 17.453125 28 17.453125 28.070312 17.453125 C 28.105469 17.453125 28.140625 17.453125 28.175781 17.453125 C 28.578125 17.453125 28.902344 17.539062 29.195312 17.824219 C 29.347656 18.078125 29.367188 18.347656 29.296875 18.632812 C 29.195312 18.859375 29.054688 19.039062 28.824219 19.136719 C 28.539062 19.234375 28.289062 19.261719 27.988281 19.261719 C 27.957031 19.261719 27.925781 19.261719 27.894531 19.261719 C 27.777344 19.261719 27.664062 19.261719 27.546875 19.261719 C 27.285156 19.257812 27.027344 19.257812 26.757812 19.257812 C 26.757812 18.664062 26.757812 18.070312 26.757812 17.460938 Z M 26.757812 17.460938 "/>
<path style=" stroke:none;fill-rule:nonzero;fill:rgb(5.882353%,5.490196%,5.490196%);fill-opacity:1;" d="M 20.195312 17.773438 C 20.300781 17.878906 20.332031 18.003906 20.378906 18.144531 C 20.394531 18.1875 20.394531 18.1875 20.410156 18.234375 C 20.441406 18.332031 20.476562 18.429688 20.507812 18.523438 C 20.53125 18.59375 20.554688 18.660156 20.578125 18.726562 C 20.632812 18.898438 20.691406 19.066406 20.75 19.238281 C 20.78125 19.332031 20.808594 19.421875 20.839844 19.515625 C 20.894531 19.671875 20.949219 19.832031 21 19.992188 C 21.015625 20.035156 21.03125 20.082031 21.046875 20.132812 C 21.0625 20.175781 21.078125 20.21875 21.09375 20.265625 C 21.105469 20.304688 21.117188 20.339844 21.128906 20.378906 C 21.1875 20.550781 21.238281 20.726562 21.289062 20.898438 C 20.578125 20.898438 19.871094 20.898438 19.140625 20.898438 C 19.378906 20.164062 19.613281 19.429688 19.867188 18.699219 C 19.878906 18.65625 19.878906 18.65625 19.894531 18.613281 C 19.992188 18.332031 20.089844 18.050781 20.195312 17.773438 Z M 20.195312 17.773438 "/>
<path style=" stroke:none;fill-rule:nonzero;fill:rgb(13.725491%,13.725491%,13.725491%);fill-opacity:1;" d="M 26.757812 17.460938 C 27.039062 17.460938 27.320312 17.457031 27.609375 17.457031 C 27.699219 17.457031 27.789062 17.453125 27.878906 17.453125 C 27.949219 17.453125 28.019531 17.453125 28.089844 17.453125 C 28.125 17.453125 28.164062 17.453125 28.199219 17.453125 C 28.234375 17.453125 28.269531 17.453125 28.304688 17.453125 C 28.335938 17.453125 28.367188 17.453125 28.398438 17.453125 C 28.476562 17.460938 28.476562 17.460938 28.59375 17.539062 C 28.355469 17.539062 28.117188 17.539062 27.878906 17.542969 C 27.800781 17.542969 27.71875 17.542969 27.636719 17.542969 C 27.519531 17.542969 27.40625 17.542969 27.289062 17.542969 C 27.253906 17.542969 27.214844 17.542969 27.179688 17.542969 C 27.144531 17.542969 27.113281 17.542969 27.078125 17.542969 C 27.03125 17.542969 27.03125 17.542969 26.988281 17.542969 C 26.914062 17.539062 26.914062 17.539062 26.835938 17.5 C 26.835938 18.054688 26.835938 18.609375 26.835938 19.179688 C 27.339844 19.179688 27.839844 19.179688 28.359375 19.179688 C 28.359375 19.207031 28.359375 19.230469 28.359375 19.257812 C 27.832031 19.257812 27.300781 19.257812 26.757812 19.257812 C 26.757812 18.664062 26.757812 18.070312 26.757812 17.460938 Z M 26.757812 17.460938 "/>
<path style=" stroke:none;fill-rule:nonzero;fill:rgb(11.764706%,11.764706%,12.156863%);fill-opacity:1;" d="M 26.757812 20.703125 C 27.363281 20.703125 27.96875 20.703125 28.59375 20.703125 C 28.582031 20.730469 28.566406 20.753906 28.554688 20.78125 C 28 20.78125 27.445312 20.78125 26.875 20.78125 C 26.875 21.359375 26.875 21.941406 26.875 22.539062 C 27.46875 22.539062 28.0625 22.539062 28.671875 22.539062 C 28.671875 22.550781 28.671875 22.566406 28.671875 22.578125 C 28.039062 22.578125 27.410156 22.578125 26.757812 22.578125 C 26.757812 21.960938 26.757812 21.339844 26.757812 20.703125 Z M 26.757812 20.703125 "/>
<path style=" stroke:none;fill-rule:nonzero;fill:rgb(9.803922%,9.411765%,9.803922%);fill-opacity:1;" d="M 8.554688 23.945312 C 8.566406 23.945312 8.582031 23.945312 8.59375 23.945312 C 8.59375 23.984375 8.59375 24.027344 8.59375 24.066406 C 8.597656 25.054688 8.601562 26.042969 8.605469 27.03125 C 8.609375 27.507812 8.609375 27.984375 8.613281 28.464844 C 8.613281 28.878906 8.617188 29.296875 8.617188 29.710938 C 8.621094 29.933594 8.621094 30.152344 8.621094 30.375 C 8.621094 30.582031 8.625 30.789062 8.625 30.996094 C 8.625 31.070312 8.625 31.148438 8.625 31.222656 C 8.625 31.328125 8.625 31.433594 8.625 31.535156 C 8.625 31.566406 8.625 31.597656 8.625 31.628906 C 8.628906 31.816406 8.644531 32 8.671875 32.1875 C 8.632812 32.1875 8.59375 32.1875 8.554688 32.1875 C 8.554688 29.46875 8.554688 26.746094 8.554688 23.945312 Z M 8.554688 23.945312 "/>
<path style=" stroke:none;fill-rule:nonzero;fill:rgb(0%,44.705883%,45.09804%);fill-opacity:1;" d="M 18.867188 16.914062 C 18.910156 17.042969 18.898438 17.097656 18.867188 17.226562 C 18.839844 17.226562 18.816406 17.226562 18.789062 17.226562 C 18.777344 17.253906 18.761719 17.277344 18.75 17.304688 C 18.761719 17.246094 18.773438 17.1875 18.785156 17.132812 C 18.792969 17.097656 18.800781 17.066406 18.808594 17.035156 C 18.828125 16.953125 18.828125 16.953125 18.867188 16.914062 Z M 18.867188 16.914062 "/>
</g>
</svg>
