<?xml version="1.0" encoding="UTF-8"?>
<svg xmlns="http://www.w3.org/2000/svg" xmlns:xlink="http://www.w3.org/1999/xlink" width="40px" height="40px" viewBox="0 0 40 40" version="1.1">
<g id="surface1">
<path style=" stroke:none;fill-rule:nonzero;fill:rgb(99.607843%,99.607843%,99.607843%);fill-opacity:1;" d="M 0 0 C 13.199219 0 26.398438 0 40 0 C 40 13.199219 40 26.398438 40 40 C 26.800781 40 13.601562 40 0 40 C 0 26.800781 0 13.601562 0 0 Z M 0 0 "/>
<path style=" stroke:none;fill-rule:nonzero;fill:rgb(0.784314%,43.137255%,43.529412%);fill-opacity:1;" d="M 11.746094 6.167969 C 11.8125 6.167969 11.8125 6.167969 11.882812 6.167969 C 11.953125 6.167969 11.953125 6.167969 12.027344 6.167969 C 12.082031 6.164062 12.132812 6.164062 12.1875 6.164062 C 12.332031 6.164062 12.476562 6.164062 12.621094 6.164062 C 12.777344 6.164062 12.929688 6.164062 13.085938 6.164062 C 13.464844 6.164062 13.839844 6.164062 14.214844 6.164062 C 14.390625 6.164062 14.570312 6.164062 14.746094 6.160156 C 15.335938 6.160156 15.925781 6.160156 16.511719 6.160156 C 16.667969 6.160156 16.820312 6.160156 16.972656 6.160156 C 17.011719 6.160156 17.046875 6.160156 17.085938 6.160156 C 17.703125 6.160156 18.316406 6.160156 18.933594 6.15625 C 19.5625 6.15625 20.195312 6.15625 20.828125 6.15625 C 21.183594 6.15625 21.539062 6.15625 21.890625 6.152344 C 22.195312 6.152344 22.496094 6.152344 22.796875 6.152344 C 22.953125 6.152344 23.105469 6.152344 23.261719 6.152344 C 23.402344 6.152344 23.542969 6.152344 23.683594 6.152344 C 23.757812 6.152344 23.832031 6.152344 23.90625 6.152344 C 24.3125 6.15625 24.65625 6.226562 24.953125 6.519531 C 24.980469 6.546875 24.980469 6.546875 25.011719 6.574219 C 25.074219 6.636719 25.132812 6.695312 25.195312 6.757812 C 25.238281 6.800781 25.28125 6.84375 25.324219 6.886719 C 25.472656 7.027344 25.613281 7.171875 25.757812 7.3125 C 25.8125 7.367188 25.867188 7.421875 25.921875 7.476562 C 26.101562 7.65625 26.28125 7.832031 26.457031 8.011719 C 26.519531 8.070312 26.582031 8.132812 26.640625 8.195312 C 26.929688 8.484375 27.21875 8.773438 27.507812 9.0625 C 27.84375 9.394531 28.175781 9.726562 28.507812 10.054688 C 28.765625 10.3125 29.023438 10.570312 29.28125 10.828125 C 29.4375 10.984375 29.589844 11.136719 29.746094 11.289062 C 29.890625 11.433594 30.035156 11.578125 30.179688 11.722656 C 30.230469 11.773438 30.285156 11.828125 30.335938 11.878906 C 30.410156 11.953125 30.480469 12.023438 30.554688 12.097656 C 30.574219 12.117188 30.59375 12.136719 30.617188 12.160156 C 30.832031 12.375 30.953125 12.601562 30.957031 12.910156 C 30.957031 12.941406 30.957031 12.972656 30.957031 13.003906 C 30.957031 13.035156 30.957031 13.070312 30.957031 13.105469 C 30.957031 13.214844 30.953125 13.320312 30.953125 13.429688 C 30.953125 13.507812 30.953125 13.582031 30.953125 13.65625 C 30.953125 13.855469 30.949219 14.054688 30.949219 14.253906 C 30.945312 14.457031 30.945312 14.660156 30.945312 14.863281 C 30.945312 15.257812 30.941406 15.65625 30.9375 16.054688 C 30.910156 16.03125 30.910156 16.03125 30.882812 16.007812 C 30.859375 15.984375 30.832031 15.964844 30.808594 15.941406 C 30.785156 15.921875 30.761719 15.902344 30.734375 15.878906 C 30.46875 15.65625 30.152344 15.5 29.835938 15.359375 C 29.800781 15.34375 29.800781 15.34375 29.761719 15.324219 C 29.558594 15.238281 29.359375 15.183594 29.140625 15.117188 C 29.140625 14.613281 29.140625 14.113281 29.140625 13.59375 C 28.980469 13.59375 28.980469 13.59375 28.816406 13.59375 C 28.457031 13.597656 28.101562 13.597656 27.742188 13.601562 C 27.527344 13.601562 27.3125 13.601562 27.09375 13.601562 C 26.886719 13.605469 26.675781 13.605469 26.46875 13.605469 C 26.390625 13.605469 26.308594 13.605469 26.230469 13.605469 C 25.453125 13.613281 24.820312 13.5 24.21875 12.96875 C 24.1875 12.941406 24.160156 12.917969 24.128906 12.890625 C 23.667969 12.460938 23.421875 11.878906 23.394531 11.25 C 23.394531 11.164062 23.394531 11.078125 23.394531 10.992188 C 23.394531 10.960938 23.394531 10.925781 23.394531 10.894531 C 23.394531 10.789062 23.394531 10.679688 23.394531 10.574219 C 23.394531 10.5 23.394531 10.425781 23.394531 10.351562 C 23.394531 10.160156 23.394531 9.964844 23.394531 9.769531 C 23.394531 9.570312 23.394531 9.375 23.398438 9.175781 C 23.398438 8.785156 23.398438 8.398438 23.398438 8.007812 C 21.914062 8.007812 20.425781 8.011719 18.941406 8.011719 C 18.765625 8.011719 18.589844 8.011719 18.414062 8.015625 C 18.378906 8.015625 18.34375 8.015625 18.308594 8.015625 C 17.742188 8.015625 17.175781 8.015625 16.609375 8.015625 C 16.03125 8.015625 15.449219 8.015625 14.871094 8.019531 C 14.511719 8.019531 14.152344 8.019531 13.796875 8.019531 C 13.550781 8.019531 13.304688 8.019531 13.058594 8.019531 C 12.917969 8.019531 12.773438 8.019531 12.632812 8.019531 C 12.480469 8.019531 12.324219 8.019531 12.171875 8.023438 C 12.128906 8.023438 12.082031 8.019531 12.035156 8.019531 C 11.71875 8.023438 11.457031 8.09375 11.214844 8.308594 C 10.992188 8.535156 10.929688 8.808594 10.929688 9.117188 C 10.929688 9.214844 10.933594 9.3125 10.9375 9.410156 C 10.9375 9.464844 10.9375 9.519531 10.941406 9.574219 C 10.941406 9.6875 10.945312 9.804688 10.949219 9.921875 C 10.953125 10.105469 10.953125 10.289062 10.957031 10.472656 C 10.957031 10.503906 10.957031 10.535156 10.957031 10.566406 C 10.957031 10.664062 10.960938 10.757812 10.960938 10.855469 C 10.964844 11.25 10.972656 11.644531 10.980469 12.042969 C 10.992188 12.332031 10.996094 12.621094 10.996094 12.910156 C 10.996094 13.0625 11 13.214844 11.003906 13.367188 C 11.042969 14.289062 11.042969 14.289062 10.804688 14.558594 C 10.574219 14.746094 10.320312 14.867188 10.050781 14.980469 C 9.839844 15.078125 9.648438 15.203125 9.453125 15.328125 C 9.386719 15.371094 9.316406 15.414062 9.25 15.457031 C 9.207031 15.484375 9.207031 15.484375 9.164062 15.507812 C 9.101562 15.546875 9.101562 15.546875 9.0625 15.546875 C 9.058594 14.632812 9.054688 13.722656 9.054688 12.808594 C 9.054688 12.386719 9.050781 11.960938 9.050781 11.539062 C 9.050781 11.167969 9.046875 10.800781 9.046875 10.429688 C 9.046875 10.234375 9.046875 10.039062 9.046875 9.84375 C 9.042969 9.660156 9.042969 9.476562 9.042969 9.289062 C 9.042969 9.222656 9.042969 9.15625 9.042969 9.089844 C 9.035156 8.238281 9.292969 7.570312 9.886719 6.945312 C 10.367188 6.488281 11.078125 6.167969 11.746094 6.167969 Z M 11.746094 6.167969 "/>
<path style=" stroke:none;fill-rule:nonzero;fill:rgb(1.568628%,19.215687%,30.588236%);fill-opacity:1;" d="M 9.0625 24.492188 C 9.203125 24.546875 9.335938 24.609375 9.46875 24.675781 C 9.527344 24.707031 9.527344 24.707031 9.589844 24.738281 C 9.632812 24.761719 9.675781 24.785156 9.71875 24.808594 C 9.761719 24.828125 9.804688 24.851562 9.851562 24.875 C 10.804688 25.375 10.804688 25.375 10.898438 25.46875 C 10.902344 25.535156 10.902344 25.601562 10.902344 25.671875 C 10.902344 25.714844 10.902344 25.757812 10.902344 25.804688 C 10.902344 25.851562 10.902344 25.902344 10.902344 25.949219 C 10.902344 26.027344 10.90625 26.105469 10.90625 26.183594 C 10.90625 26.269531 10.90625 26.351562 10.90625 26.4375 C 10.90625 26.613281 10.90625 26.785156 10.90625 26.960938 C 10.90625 27.023438 10.90625 27.082031 10.90625 27.144531 C 10.90625 27.171875 10.90625 27.203125 10.90625 27.234375 C 10.910156 27.640625 10.910156 28.050781 10.910156 28.457031 C 10.910156 28.734375 10.914062 29.007812 10.914062 29.285156 C 10.914062 29.429688 10.914062 29.574219 10.914062 29.722656 C 10.914062 29.882812 10.914062 30.046875 10.917969 30.210938 C 10.917969 30.257812 10.917969 30.304688 10.914062 30.355469 C 10.917969 30.691406 10.96875 31.003906 11.171875 31.277344 C 11.203125 31.300781 11.230469 31.324219 11.257812 31.347656 C 11.285156 31.371094 11.3125 31.394531 11.339844 31.417969 C 11.695312 31.636719 12.0625 31.617188 12.460938 31.617188 C 12.527344 31.617188 12.597656 31.617188 12.664062 31.617188 C 12.851562 31.617188 13.035156 31.617188 13.222656 31.617188 C 13.421875 31.617188 13.625 31.617188 13.824219 31.617188 C 14.21875 31.617188 14.609375 31.617188 15.003906 31.617188 C 15.324219 31.617188 15.644531 31.617188 15.960938 31.617188 C 16.03125 31.617188 16.03125 31.617188 16.101562 31.617188 C 16.191406 31.617188 16.285156 31.617188 16.378906 31.617188 C 17.242188 31.617188 18.109375 31.617188 18.976562 31.617188 C 19.71875 31.617188 20.460938 31.617188 21.207031 31.617188 C 22.070312 31.617188 22.933594 31.617188 23.796875 31.617188 C 23.886719 31.617188 23.980469 31.617188 24.070312 31.617188 C 24.140625 31.617188 24.140625 31.617188 24.207031 31.617188 C 24.527344 31.617188 24.847656 31.617188 25.167969 31.617188 C 25.554688 31.617188 25.945312 31.617188 26.332031 31.617188 C 26.53125 31.617188 26.730469 31.617188 26.929688 31.617188 C 27.109375 31.617188 27.292969 31.617188 27.472656 31.617188 C 27.539062 31.617188 27.605469 31.617188 27.667969 31.617188 C 28.277344 31.628906 28.277344 31.628906 28.804688 31.363281 C 28.828125 31.34375 28.851562 31.320312 28.875 31.300781 C 29.109375 31 29.125 30.695312 29.121094 30.324219 C 29.125 30.269531 29.125 30.21875 29.125 30.164062 C 29.125 30.023438 29.125 29.878906 29.125 29.734375 C 29.125 29.585938 29.125 29.433594 29.128906 29.285156 C 29.128906 29 29.128906 28.71875 29.128906 28.433594 C 29.128906 28.109375 29.132812 27.785156 29.132812 27.464844 C 29.136719 26.796875 29.140625 26.132812 29.140625 25.46875 C 29.175781 25.457031 29.175781 25.457031 29.214844 25.445312 C 29.261719 25.429688 29.261719 25.429688 29.308594 25.414062 C 29.339844 25.402344 29.375 25.390625 29.40625 25.378906 C 30.164062 25.144531 30.164062 25.144531 30.808594 24.699219 C 30.859375 24.648438 30.859375 24.648438 30.9375 24.648438 C 30.941406 25.460938 30.945312 26.277344 30.945312 27.089844 C 30.945312 27.46875 30.949219 27.847656 30.949219 28.226562 C 30.949219 28.554688 30.953125 28.886719 30.953125 29.214844 C 30.953125 29.390625 30.953125 29.5625 30.953125 29.738281 C 30.957031 29.902344 30.957031 30.066406 30.957031 30.234375 C 30.957031 30.292969 30.957031 30.351562 30.957031 30.414062 C 30.960938 30.933594 30.886719 31.453125 30.640625 31.921875 C 30.621094 31.960938 30.621094 31.960938 30.601562 32 C 30.457031 32.273438 30.257812 32.484375 30.039062 32.695312 C 30.011719 32.722656 29.984375 32.753906 29.953125 32.78125 C 29.554688 33.171875 29.050781 33.363281 28.515625 33.476562 C 28.488281 33.484375 28.457031 33.492188 28.429688 33.496094 C 28.296875 33.519531 28.171875 33.519531 28.035156 33.519531 C 27.996094 33.519531 27.996094 33.519531 27.953125 33.519531 C 27.855469 33.519531 27.761719 33.519531 27.667969 33.519531 C 27.597656 33.519531 27.53125 33.519531 27.460938 33.519531 C 27.273438 33.519531 27.082031 33.519531 26.894531 33.519531 C 26.691406 33.519531 26.488281 33.523438 26.285156 33.523438 C 25.882812 33.523438 25.484375 33.523438 25.085938 33.523438 C 24.761719 33.523438 24.4375 33.523438 24.113281 33.523438 C 23.195312 33.523438 22.273438 33.523438 21.355469 33.523438 C 21.304688 33.523438 21.257812 33.523438 21.203125 33.523438 C 21.15625 33.523438 21.105469 33.523438 21.054688 33.523438 C 20.25 33.523438 19.445312 33.523438 18.640625 33.523438 C 17.816406 33.523438 16.988281 33.523438 16.164062 33.523438 C 15.699219 33.523438 15.238281 33.523438 14.773438 33.523438 C 14.378906 33.527344 13.984375 33.527344 13.589844 33.523438 C 13.386719 33.523438 13.1875 33.523438 12.984375 33.527344 C 12.800781 33.527344 12.617188 33.527344 12.429688 33.523438 C 12.363281 33.523438 12.296875 33.523438 12.230469 33.527344 C 11.3125 33.527344 10.511719 33.320312 9.835938 32.65625 C 9.226562 32.023438 9.042969 31.25 9.050781 30.394531 C 9.050781 30.328125 9.050781 30.265625 9.050781 30.199219 C 9.050781 30.027344 9.050781 29.851562 9.050781 29.679688 C 9.050781 29.496094 9.050781 29.3125 9.050781 29.128906 C 9.050781 28.785156 9.054688 28.441406 9.054688 28.09375 C 9.054688 27.703125 9.054688 27.308594 9.054688 26.917969 C 9.058594 26.109375 9.058594 25.300781 9.0625 24.492188 Z M 9.0625 24.492188 "/>
<path style=" stroke:none;fill-rule:nonzero;fill:rgb(1.568628%,19.215687%,30.19608%);fill-opacity:1;" d="M 25.117188 16.25 C 29.289062 16.25 29.289062 16.25 29.773438 16.507812 C 29.800781 16.523438 29.828125 16.535156 29.855469 16.550781 C 30.308594 16.792969 30.644531 17.160156 30.816406 17.648438 C 30.96875 18.183594 30.929688 18.746094 30.679688 19.246094 C 30.5 19.554688 30.234375 19.820312 29.921875 20 C 30.035156 20.089844 30.15625 20.164062 30.28125 20.238281 C 30.675781 20.492188 30.914062 20.777344 31.09375 21.210938 C 31.117188 21.261719 31.117188 21.261719 31.136719 21.316406 C 31.292969 21.902344 31.171875 22.535156 30.890625 23.058594 C 30.5625 23.582031 30.050781 23.917969 29.453125 24.0625 C 28.03125 24.320312 26.5625 24.140625 25.117188 24.140625 C 25.117188 21.535156 25.117188 18.933594 25.117188 16.25 Z M 25.117188 16.25 "/>
<path style=" stroke:none;fill-rule:nonzero;fill:rgb(0.784314%,43.137255%,43.529412%);fill-opacity:1;" d="M 19.375 16.25 C 20.019531 16.25 20.664062 16.25 21.328125 16.25 C 21.460938 16.566406 21.589844 16.882812 21.710938 17.203125 C 21.738281 17.277344 21.765625 17.351562 21.792969 17.425781 C 21.835938 17.539062 21.878906 17.648438 21.917969 17.761719 C 22.03125 18.0625 22.148438 18.363281 22.261719 18.667969 C 22.273438 18.703125 22.289062 18.738281 22.300781 18.777344 C 22.542969 19.417969 22.785156 20.054688 23.03125 20.691406 C 23.046875 20.734375 23.0625 20.78125 23.082031 20.828125 C 23.167969 21.050781 23.253906 21.277344 23.339844 21.5 C 23.472656 21.855469 23.609375 22.207031 23.746094 22.5625 C 23.769531 22.628906 23.796875 22.695312 23.820312 22.765625 C 23.832031 22.796875 23.84375 22.828125 23.859375 22.859375 C 23.875 22.898438 23.875 22.898438 23.890625 22.941406 C 24.039062 23.339844 24.1875 23.738281 24.335938 24.140625 C 23.730469 24.140625 23.125 24.140625 22.5 24.140625 C 22.410156 23.878906 22.320312 23.617188 22.226562 23.347656 C 22.199219 23.265625 22.167969 23.183594 22.140625 23.097656 C 22.117188 23.03125 22.09375 22.964844 22.074219 22.902344 C 22.0625 22.867188 22.050781 22.832031 22.035156 22.796875 C 22.027344 22.765625 22.015625 22.734375 22.003906 22.699219 C 21.992188 22.671875 21.984375 22.644531 21.972656 22.613281 C 21.953125 22.539062 21.953125 22.539062 21.953125 22.421875 C 20.910156 22.421875 19.863281 22.421875 18.789062 22.421875 C 18.75 22.550781 18.710938 22.679688 18.671875 22.8125 C 18.632812 22.921875 18.597656 23.03125 18.558594 23.140625 C 18.546875 23.167969 18.539062 23.191406 18.53125 23.21875 C 18.496094 23.3125 18.464844 23.40625 18.429688 23.5 C 18.355469 23.710938 18.28125 23.921875 18.203125 24.140625 C 17.609375 24.140625 17.015625 24.140625 16.40625 24.140625 C 16.71875 23.246094 16.71875 23.246094 16.851562 22.90625 C 16.867188 22.867188 16.882812 22.832031 16.894531 22.789062 C 16.929688 22.707031 16.960938 22.625 16.992188 22.542969 C 17.078125 22.320312 17.164062 22.097656 17.25 21.875 C 17.265625 21.832031 17.285156 21.785156 17.304688 21.738281 C 17.484375 21.269531 17.664062 20.796875 17.84375 20.328125 C 17.855469 20.285156 17.871094 20.246094 17.886719 20.203125 C 17.902344 20.164062 17.917969 20.125 17.933594 20.082031 C 17.964844 20.003906 17.996094 19.921875 18.027344 19.839844 C 18.039062 19.800781 18.054688 19.761719 18.070312 19.722656 C 18.171875 19.460938 18.269531 19.199219 18.371094 18.941406 C 18.710938 18.046875 19.046875 17.148438 19.375 16.25 Z M 19.375 16.25 "/>
<path style=" stroke:none;fill-rule:nonzero;fill:rgb(0.784314%,43.137255%,43.529412%);fill-opacity:1;" d="M 15.1875 16.890625 C 15.761719 17.386719 16.140625 18.042969 16.289062 18.789062 C 16.289062 18.839844 16.289062 18.890625 16.289062 18.945312 C 15.734375 18.945312 15.179688 18.945312 14.609375 18.945312 C 14.53125 18.734375 14.53125 18.734375 14.453125 18.515625 C 14.246094 18.085938 13.964844 17.855469 13.515625 17.695312 C 13.269531 17.625 13.03125 17.601562 12.777344 17.605469 C 12.722656 17.605469 12.722656 17.605469 12.671875 17.605469 C 12.429688 17.609375 12.214844 17.628906 11.992188 17.734375 C 11.957031 17.75 11.921875 17.765625 11.886719 17.78125 C 11.398438 18.023438 11.085938 18.410156 10.890625 18.914062 C 10.59375 19.808594 10.609375 20.820312 11.015625 21.679688 C 11.292969 22.203125 11.679688 22.5 12.234375 22.699219 C 12.765625 22.820312 13.375 22.789062 13.855469 22.519531 C 14.28125 22.246094 14.433594 21.910156 14.648438 21.445312 C 15.191406 21.445312 15.730469 21.445312 16.289062 21.445312 C 16.136719 22.199219 15.863281 22.808594 15.3125 23.359375 C 15.289062 23.382812 15.265625 23.40625 15.238281 23.433594 C 14.503906 24.132812 13.496094 24.292969 12.523438 24.269531 C 11.546875 24.230469 10.640625 23.800781 9.960938 23.097656 C 9.105469 22.109375 8.925781 20.875 8.984375 19.609375 C 9.070312 18.574219 9.558594 17.585938 10.351562 16.914062 C 11.703125 15.859375 13.835938 15.820312 15.1875 16.890625 Z M 15.1875 16.890625 "/>
<path style=" stroke:none;fill-rule:nonzero;fill:rgb(99.215686%,99.607843%,99.607843%);fill-opacity:1;" d="M 26.757812 20.78125 C 27.078125 20.777344 27.398438 20.773438 27.726562 20.773438 C 27.878906 20.769531 27.878906 20.769531 28.03125 20.765625 C 28.109375 20.765625 28.191406 20.765625 28.273438 20.765625 C 28.3125 20.765625 28.355469 20.765625 28.394531 20.761719 C 28.707031 20.761719 29.023438 20.800781 29.265625 21.011719 C 29.464844 21.222656 29.574219 21.4375 29.589844 21.730469 C 29.582031 22.007812 29.484375 22.222656 29.300781 22.425781 C 28.96875 22.730469 28.632812 22.742188 28.199219 22.738281 C 28.164062 22.738281 28.125 22.738281 28.089844 22.738281 C 27.953125 22.738281 27.816406 22.738281 27.679688 22.738281 C 27.375 22.734375 27.070312 22.734375 26.757812 22.734375 C 26.757812 22.089844 26.757812 21.445312 26.757812 20.78125 Z M 26.757812 20.78125 "/>
<path style=" stroke:none;fill-rule:nonzero;fill:rgb(99.215686%,99.607843%,99.607843%);fill-opacity:1;" d="M 26.757812 17.617188 C 27.035156 17.613281 27.308594 17.613281 27.59375 17.609375 C 27.726562 17.609375 27.726562 17.609375 27.859375 17.605469 C 27.925781 17.605469 27.996094 17.605469 28.066406 17.605469 C 28.101562 17.605469 28.136719 17.605469 28.171875 17.605469 C 28.511719 17.605469 28.796875 17.671875 29.046875 17.90625 C 29.234375 18.121094 29.273438 18.371094 29.269531 18.644531 C 29.242188 18.917969 29.117188 19.113281 28.914062 19.285156 C 28.644531 19.445312 28.40625 19.46875 28.101562 19.464844 C 28.066406 19.464844 28.03125 19.464844 27.996094 19.464844 C 27.871094 19.464844 27.742188 19.460938 27.617188 19.460938 C 27.332031 19.457031 27.050781 19.457031 26.757812 19.453125 C 26.757812 18.847656 26.757812 18.242188 26.757812 17.617188 Z M 26.757812 17.617188 "/>
<path style=" stroke:none;fill-rule:nonzero;fill:rgb(98.823529%,99.215686%,99.215686%);fill-opacity:1;" d="M 20.351562 18.164062 C 20.445312 18.257812 20.46875 18.335938 20.511719 18.460938 C 20.527344 18.507812 20.542969 18.554688 20.5625 18.605469 C 20.570312 18.628906 20.578125 18.65625 20.589844 18.679688 C 20.636719 18.816406 20.683594 18.953125 20.730469 19.089844 C 20.746094 19.132812 20.746094 19.132812 20.761719 19.175781 C 20.839844 19.40625 20.925781 19.632812 21.007812 19.859375 C 21.027344 19.910156 21.027344 19.910156 21.046875 19.960938 C 21.097656 20.09375 21.148438 20.230469 21.195312 20.363281 C 21.230469 20.457031 21.265625 20.550781 21.300781 20.644531 C 21.3125 20.671875 21.324219 20.699219 21.332031 20.730469 C 21.375 20.84375 21.40625 20.933594 21.40625 21.054688 C 20.710938 21.054688 20.015625 21.054688 19.296875 21.054688 C 19.371094 20.808594 19.445312 20.566406 19.53125 20.324219 C 19.542969 20.292969 19.554688 20.265625 19.566406 20.230469 C 19.601562 20.132812 19.636719 20.035156 19.671875 19.9375 C 19.699219 19.867188 19.722656 19.800781 19.746094 19.730469 C 19.886719 19.347656 20.023438 18.960938 20.167969 18.578125 C 20.183594 18.539062 20.195312 18.503906 20.210938 18.460938 C 20.230469 18.410156 20.230469 18.410156 20.25 18.359375 C 20.261719 18.328125 20.273438 18.300781 20.285156 18.269531 C 20.3125 18.203125 20.3125 18.203125 20.351562 18.164062 Z M 20.351562 18.164062 "/>
<path style=" stroke:none;fill-rule:nonzero;fill:rgb(15.686275%,50.980395%,51.764709%);fill-opacity:1;" d="M 29.21875 13.59375 C 29.222656 13.707031 29.222656 13.820312 29.21875 13.933594 C 29.21875 13.96875 29.214844 14.003906 29.214844 14.035156 C 29.210938 14.144531 29.207031 14.253906 29.203125 14.359375 C 29.203125 14.433594 29.199219 14.507812 29.199219 14.578125 C 29.191406 14.757812 29.1875 14.9375 29.179688 15.117188 C 29.167969 15.117188 29.152344 15.117188 29.140625 15.117188 C 29.140625 14.613281 29.140625 14.113281 29.140625 13.59375 C 27.941406 13.59375 26.742188 13.59375 25.507812 13.59375 C 25.507812 13.582031 25.507812 13.566406 25.507812 13.554688 C 25.980469 13.546875 26.453125 13.542969 26.925781 13.535156 C 27.144531 13.53125 27.363281 13.53125 27.582031 13.527344 C 27.792969 13.523438 28.003906 13.519531 28.21875 13.519531 C 28.296875 13.515625 28.378906 13.515625 28.460938 13.515625 C 28.574219 13.511719 28.683594 13.511719 28.796875 13.511719 C 28.832031 13.507812 28.867188 13.507812 28.898438 13.507812 C 29.132812 13.507812 29.132812 13.507812 29.21875 13.59375 Z M 29.21875 13.59375 "/>
<path style=" stroke:none;fill-rule:nonzero;fill:rgb(1.568628%,38.431373%,39.215687%);fill-opacity:1;" d="M 16.132812 18.4375 C 16.160156 18.449219 16.183594 18.464844 16.210938 18.476562 C 16.261719 18.644531 16.289062 18.769531 16.289062 18.945312 C 15.734375 18.945312 15.179688 18.945312 14.609375 18.945312 C 14.621094 18.894531 14.636719 18.84375 14.648438 18.789062 C 14.648438 18.816406 14.648438 18.839844 14.648438 18.867188 C 15.164062 18.867188 15.679688 18.867188 16.210938 18.867188 C 16.183594 18.777344 16.160156 18.6875 16.132812 18.59375 C 16.132812 18.542969 16.132812 18.492188 16.132812 18.4375 Z M 16.132812 18.4375 "/>
<path style=" stroke:none;fill-rule:nonzero;fill:rgb(3.137255%,36.470589%,36.862746%);fill-opacity:1;" d="M 9.882812 6.953125 C 9.910156 6.964844 9.933594 6.980469 9.960938 6.992188 C 9.914062 7.128906 9.855469 7.164062 9.746094 7.25 C 9.660156 7.332031 9.621094 7.433594 9.570312 7.539062 C 9.484375 7.59375 9.484375 7.59375 9.414062 7.617188 C 9.46875 7.460938 9.542969 7.347656 9.648438 7.21875 C 9.675781 7.1875 9.703125 7.152344 9.730469 7.117188 C 9.804688 7.03125 9.804688 7.03125 9.882812 6.953125 Z M 9.882812 6.953125 "/>
<path style=" stroke:none;fill-rule:nonzero;fill:rgb(5.490196%,40.000001%,40.784314%);fill-opacity:1;" d="M 9.882812 6.953125 C 9.910156 6.964844 9.933594 6.980469 9.960938 6.992188 C 9.914062 7.136719 9.859375 7.15625 9.726562 7.226562 C 9.726562 7.109375 9.726562 7.109375 9.804688 7.023438 C 9.832031 7 9.855469 6.976562 9.882812 6.953125 Z M 9.882812 6.953125 "/>
</g>
</svg>
