<?xml version="1.0" encoding="UTF-8"?>
<svg version="1.1" xmlns="http://www.w3.org/2000/svg" width="1024" height="1024">
<path d="M0 0 C337.92 0 675.84 0 1024 0 C1024 337.92 1024 675.84 1024 1024 C686.08 1024 348.16 1024 0 1024 C0 686.08 0 348.16 0 0 Z " fill="#FEFEFE" transform="translate(0,0)"/>
<path d="M0 0 C1.71336286 -0.00668677 1.71336286 -0.00668677 3.46133912 -0.01350862 C5.33674797 -0.01323207 5.33674797 -0.01323207 7.25004387 -0.01294994 C8.59533032 -0.01625094 9.94061579 -0.019977 11.2859 -0.02409142 C14.98168265 -0.03409263 18.67744907 -0.03782518 22.37324333 -0.04048073 C26.35977681 -0.04438933 30.3462975 -0.05396723 34.3328228 -0.0626936 C43.95934798 -0.08244153 53.58587419 -0.09252175 63.21241456 -0.10142139 C67.74767234 -0.10580671 72.28292895 -0.11117286 76.81818581 -0.11641026 C91.89740379 -0.13342028 106.97662106 -0.14791426 122.05584717 -0.155159 C125.96757445 -0.15706883 129.87930172 -0.15898917 133.79102898 -0.16094494 C134.76324708 -0.16142868 135.73546519 -0.16191242 136.73714446 -0.16241082 C152.48512345 -0.17071049 168.23302648 -0.19604736 183.9809723 -0.22852562 C200.15505273 -0.26161037 216.32909456 -0.27960901 232.50320899 -0.28280324 C241.58196595 -0.28496694 250.66061208 -0.29369518 259.73933601 -0.31926441 C267.47132079 -0.34099069 275.20316782 -0.34901232 282.93517967 -0.33929763 C286.87785366 -0.3347586 290.82024355 -0.33661578 294.76287842 -0.35605907 C298.37790895 -0.37373229 301.992449 -0.3726599 305.60748504 -0.35716178 C307.52281716 -0.35367616 309.43815468 -0.36978092 311.35341465 -0.38676625 C321.72363216 -0.30991453 330.50887148 1.49670801 338.09449577 8.99367237 C338.82918351 9.70589568 338.82918351 9.70589568 339.57871342 10.43250734 C341.17146725 11.98422816 342.73945027 13.55867638 344.3086071 15.13422108 C345.41937925 16.22275515 346.53177194 17.30963773 347.64567375 18.39496899 C351.36687043 22.03274531 355.05102077 25.70698939 358.73438835 29.38300037 C360.13834009 30.78066994 361.54247448 32.17815605 362.94677544 33.57547474 C367.50838996 38.11628682 372.06488553 42.66221761 376.6211071 47.20843983 C378.19850904 48.78178782 379.77594251 50.35510419 381.35340691 51.92838955 C388.75521505 59.31121297 396.15465598 66.69639877 403.55116272 74.08453339 C412.06749924 82.59106723 420.59208319 91.08922467 429.12363148 99.58050126 C435.73897949 106.16569637 442.34663929 112.7585426 448.94858456 119.35717422 C452.88400034 123.29024239 456.82263623 127.21995155 460.76945305 131.14158154 C464.47519801 134.82404981 468.17130867 138.51592184 471.86029053 142.2151804 C473.21289073 143.56827584 474.56890268 144.91797094 475.92860031 146.26393414 C477.78833027 148.10592705 479.63521157 149.95994219 481.47950554 151.81737232 C482.01607434 152.34297188 482.55264315 152.86857144 483.10547161 153.41009825 C488.5647079 158.96327101 491.74806071 164.7825448 491.80628777 172.65071583 C491.79190666 173.43546787 491.77752556 174.22021992 491.76270866 175.02875233 C491.76329277 175.87848118 491.76387688 176.72821003 491.76447868 177.60368824 C491.7617136 180.385129 491.73069735 183.16546981 491.6992321 185.94672108 C491.69176408 187.88584273 491.6860738 189.82497197 491.68208122 191.76410389 C491.66686905 196.84742846 491.62762553 201.93028988 491.5832653 207.0134325 C491.54221703 212.20857956 491.52404985 217.40380206 491.5039196 222.59906483 C491.46112682 232.77765281 491.39292932 242.9558983 491.3086071 253.13422108 C490.60223358 252.52090176 490.60223358 252.52090176 489.88158989 251.89519215 C489.25865547 251.35717472 488.63572105 250.8191573 487.99390984 250.26483631 C487.37861916 249.73220676 486.76332848 249.19957722 486.12939262 248.65080738 C479.28741394 242.95192026 471.22673881 238.89629021 463.1211071 235.32172108 C462.178601 234.90515247 462.178601 234.90515247 461.21705437 234.48016834 C455.96098156 232.24581091 450.86632202 230.80153555 445.3086071 229.13422108 C445.3086071 216.26422108 445.3086071 203.39422108 445.3086071 190.13422108 C441.17700066 190.15778675 441.17700066 190.15778675 436.96192741 190.1818285 C427.82574396 190.23170557 418.68955423 190.26474219 409.55327034 190.28965759 C404.01802892 190.30526327 398.4829279 190.32640784 392.94776726 190.36053944 C387.59851783 190.39331539 382.24940281 190.41111236 376.90006065 190.41885281 C374.86688181 190.42436373 372.83370969 190.43512458 370.80058861 190.45141125 C350.91177419 190.60428889 334.73075684 187.73706095 319.3086071 174.13422108 C318.54677116 173.4664867 317.78493523 172.79875233 317.00001335 172.11078358 C305.23700762 161.1213988 298.94170499 146.23084334 298.21920395 130.14356136 C298.18649902 127.94066014 298.18479019 125.73992901 298.19508171 123.53680897 C298.19493568 122.70673328 298.19478966 121.8766576 298.19463921 121.02142811 C298.19533136 118.29988384 298.2030909 115.57840952 298.21095085 112.85687733 C298.21281751 110.96116136 298.21424024 109.0654449 298.21523857 107.16972828 C298.21904423 102.19673788 298.22885776 97.22377701 298.23994255 92.25079823 C298.25019872 87.16962553 298.25474519 82.08844803 298.25977898 77.00726795 C298.27048186 67.04957274 298.28753472 57.09189937 298.3086071 47.13422108 C260.26053723 47.14732807 222.21258041 47.18665692 184.16457931 47.2610767 C179.67108502 47.26984329 175.17759034 47.27839312 170.68409538 47.28680897 C169.78953406 47.28848803 168.89497273 47.29016709 167.97330348 47.29189704 C153.49503402 47.31855557 139.01680415 47.3276613 124.53851266 47.3302625 C109.67874598 47.33332363 94.81909364 47.35528876 79.9593786 47.39474565 C70.79256496 47.41849212 61.62597966 47.4275522 52.45913951 47.41773418 C46.17023334 47.41241209 39.88153151 47.42547799 33.59268351 47.45288398 C29.96606941 47.46814901 26.3399127 47.47542097 22.71328545 47.46081829 C18.77536033 47.44517486 14.83818991 47.46831199 10.90031242 47.49498463 C9.76215635 47.48431137 8.62400028 47.47363811 7.45135462 47.46264142 C-0.69291737 47.56541626 -7.36901016 49.33682828 -13.59985471 54.81088406 C-19.25556657 60.63045148 -20.876442 67.60394558 -20.92189217 75.54440784 C-20.87248418 78.0449159 -20.80646659 80.54513109 -20.72703743 83.04486561 C-20.69506729 84.43066622 -20.66484791 85.81650815 -20.63623238 87.20238209 C-20.57371982 90.1718863 -20.50384664 93.14109561 -20.42964745 96.11032963 C-20.31704646 100.81955491 -20.25200808 105.52869605 -20.19893074 110.23892689 C-20.18982143 111.0369589 -20.18071211 111.8349909 -20.17132676 112.6572057 C-20.14373408 115.11308128 -20.11675709 117.56896312 -20.0898304 120.02484608 C-19.97777682 130.15273869 -19.8321636 140.27627248 -19.5429554 150.40082264 C-19.33174313 157.80675681 -19.21078848 165.2082126 -19.19215858 172.61721408 C-19.17891463 176.53013291 -19.12205784 180.43073264 -18.95464134 184.34034061 C-17.98449218 207.91313433 -17.98449218 207.91313433 -24.0756321 214.84917927 C-29.97959705 219.60614558 -36.46798723 222.71773306 -43.41883659 225.64946079 C-48.82889273 228.10400572 -53.7191113 231.34197731 -58.6913929 234.57172108 C-60.41881463 235.65653588 -62.14767728 236.73906488 -63.8788929 237.81781483 C-64.95203743 238.4915514 -64.95203743 238.4915514 -66.04686165 239.17889881 C-67.6913929 240.13422108 -67.6913929 240.13422108 -68.6913929 240.13422108 C-68.78501364 216.77658128 -68.85545887 193.41897262 -68.89864159 170.06118298 C-68.91922887 159.21469681 -68.9472759 148.36832752 -68.99315071 137.52191639 C-69.03313614 128.06341839 -69.05885355 118.60500507 -69.06774688 109.14642489 C-69.07294185 104.14247785 -69.08507137 99.138773 -69.11431313 94.13490391 C-69.14166753 89.41530994 -69.14979783 84.6960556 -69.14382362 79.97638988 C-69.14491497 78.25359018 -69.15274871 76.53077792 -69.1682148 74.80804729 C-69.35387368 53.04169967 -62.82683723 35.88462067 -47.6054554 19.95062733 C-35.30110686 8.2180422 -17.12859582 0.03108686 0 0 Z " fill="#026E6F" transform="translate(300.69139289855957,157.86577892303467)"/>
<path d="M0 0 C3.57677858 1.40831497 6.98093751 2.95199099 10.39453125 4.72265625 C11.94140625 5.52461426 11.94140625 5.52461426 13.51953125 6.34277344 C14.60621094 6.9102832 15.69289062 7.47779297 16.8125 8.0625 C17.92367187 8.64161133 19.03484375 9.22072266 20.1796875 9.81738281 C44.60116119 22.60116119 44.60116119 22.60116119 47 25 C47.09972961 26.72145453 47.1290904 28.44701668 47.13130188 30.1713562 C47.13531006 31.2927449 47.13931824 32.41413361 47.14344788 33.56950378 C47.14291916 34.81097672 47.14239044 36.05244965 47.1418457 37.33154297 C47.14717952 39.32604215 47.15251931 41.32054132 47.15808237 43.31503987 C47.16329046 45.46701429 47.16619679 47.61898257 47.16866493 49.77096176 C47.17457093 54.26036178 47.19111089 58.74968231 47.21000671 63.23904419 C47.21634494 64.77626605 47.22267055 66.31348796 47.22898388 67.85070992 C47.23214969 68.62084553 47.2353155 69.39098114 47.23857725 70.1844542 C47.28062105 80.63857994 47.31358403 91.09267046 47.32592773 101.546875 C47.33433349 108.5934302 47.35692344 115.63979033 47.3952834 122.68624794 C47.41497307 126.41293893 47.42747275 130.13933877 47.42244911 133.86608505 C47.41689769 138.0358292 47.44232129 142.20485536 47.4699707 146.37451172 C47.46336929 147.59574234 47.45676788 148.81697296 47.44996643 150.07521057 C47.54340997 158.69122603 48.75157726 166.67705119 54.04296875 173.71875 C54.75066406 174.3065625 55.45835937 174.894375 56.1875 175.5 C56.88230469 176.1084375 57.57710938 176.716875 58.29296875 177.34375 C67.36001218 182.89126286 76.7696378 182.42526671 86.99778748 182.38095093 C88.73497199 182.38441016 90.4721543 182.38917651 92.20933205 182.39513266 C96.96981438 182.40763593 101.73011588 182.40147529 106.4905988 182.39217401 C111.62975156 182.38538107 116.76887342 182.395866 121.90802002 182.40411377 C131.9706985 182.41745094 142.03330984 182.41457333 152.09599095 182.40587585 C160.27504452 182.39909929 168.45407927 182.39818247 176.63313484 182.4014473 C178.37961551 182.40213684 178.37961551 182.40213684 180.16137861 182.40284032 C182.5267245 182.40379951 184.89207038 182.40477215 187.25741626 182.4057581 C209.43568261 182.41431205 231.61391177 182.40447797 253.79217202 182.388357 C272.81792824 182.37495559 291.84362954 182.37728046 310.86938477 182.39111328 C332.96702369 182.40717204 355.06463 182.41348621 377.16227394 182.40427649 C379.51919909 182.40332085 381.87612424 182.40237774 384.23304939 182.4014473 C385.97249201 182.40075306 385.97249201 182.40075306 387.74707488 182.40004479 C395.91482565 182.39745566 404.08255571 182.40182429 412.25030327 182.40888596 C422.20625757 182.4173045 432.16214092 182.41501339 442.11808711 182.39904372 C447.19677148 182.39116556 452.2753376 182.38806171 457.35402107 182.39799118 C462.00561434 182.40694799 466.65698005 182.40198888 471.30855275 182.38605852 C472.98879819 182.38271489 474.66906296 182.38439537 476.34929591 182.39168589 C491.89801714 182.70744085 491.89801714 182.70744085 505.375 175.875 C505.98085938 175.35679687 506.58671875 174.83859375 507.2109375 174.3046875 C513.21359525 166.57200612 513.58395736 158.82846121 513.54589844 149.31030273 C513.55464832 147.94937466 513.565139 146.58845686 513.57722473 145.22755432 C513.60493282 141.55869988 513.60849282 137.89018364 513.60750484 134.22123981 C513.61064712 130.3774843 513.63629251 126.5338782 513.65948486 122.69020081 C513.69994819 115.42314595 513.72036273 108.15618061 513.73345876 100.88903052 C513.74936169 92.61078565 513.78779106 84.3326924 513.82805204 76.05453575 C513.91031856 59.03640249 513.96449327 42.01829376 514 25 C514.92998873 24.69005616 514.92998873 24.69005616 515.87876511 24.37385082 C517.09708967 23.96778339 517.09708967 23.96778339 518.34002686 23.55351257 C519.14564434 23.28500834 519.95126183 23.01650412 520.78129196 22.7398634 C540.20559044 16.70360859 540.20559044 16.70360859 556.71875 5.265625 C558 4 558 4 560 4 C560.09371639 24.84580109 560.16411241 45.69156711 560.20724869 66.53753662 C560.22781588 76.21813019 560.25582386 85.89859237 560.30175781 95.57910156 C560.34180544 104.02315045 560.3674752 112.46710411 560.37635398 120.91124535 C560.38153858 125.3764768 560.39360028 129.84143598 560.42292023 134.30657959 C560.45037372 138.52223402 560.45838561 142.73750791 560.45243073 146.95324326 C560.45351775 148.48814854 560.46129155 150.02306856 560.4768219 151.55789566 C560.60545656 164.94415712 558.74975258 178.22792971 552.4375 190.25 C551.93367798 191.23129883 551.93367798 191.23129883 551.41967773 192.23242188 C547.66417531 199.16982216 542.64419845 204.55941621 537 210 C536.28199219 210.73734375 535.56398438 211.4746875 534.82421875 212.234375 C524.55244748 222.21598324 511.74624376 227.06857211 498 230 C497.25766808 230.17660717 496.51533615 230.35321434 495.75050932 230.53517324 C492.37945077 231.10487072 489.1697666 231.126765 485.74966335 231.12863445 C484.66499891 231.13126401 484.66499891 231.13126401 483.55842206 231.13394669 C481.12856416 231.13860899 478.69876605 231.13614057 476.26890564 231.13371277 C474.51185242 231.13558064 472.75479962 231.13788124 470.99774748 231.14057809 C466.16373485 231.14670573 461.32973948 231.14656136 456.49572384 231.14538372 C451.28421519 231.14517995 446.07271212 231.15069627 440.86120605 231.15544128 C430.64760051 231.16375425 420.43400074 231.16649644 410.2203921 231.16705366 C401.91731361 231.16752862 393.61423702 231.16958238 385.31115913 231.17275429 C361.77236224 231.18156349 338.2335699 231.18617338 314.69477134 231.18542381 C313.42530393 231.18538386 312.15583651 231.1853439 310.84790039 231.18530273 C309.57688312 231.18526185 308.30586584 231.18522097 306.99633289 231.18517885 C286.40562966 231.18477256 265.81494473 231.1943373 245.22424679 231.2084411 C224.08375726 231.22280721 202.94327665 231.22971112 181.80278212 231.22884732 C169.93337803 231.22851538 158.06399312 231.23126113 146.19459343 231.24202538 C136.08637034 231.25113357 125.97817511 231.25330308 115.86994969 231.24651595 C110.7141054 231.24325206 105.55831456 231.24318934 100.40247536 231.2518692 C95.67788453 231.25974108 90.95338947 231.25829569 86.22880096 231.24958507 C84.52417172 231.24805158 82.81953531 231.24986054 81.11491453 231.25544515 C57.58199213 231.327405 37.0866852 225.95552822 19.828125 209.01953125 C4.18708124 192.83200597 -0.49920809 172.96938693 -0.34057617 151.10229492 C-0.33972797 149.44522619 -0.34020881 147.78815634 -0.34190369 146.13108826 C-0.34275753 141.67322142 -0.32523188 137.21560125 -0.30418181 132.75779128 C-0.28531205 128.08400869 -0.28365651 123.41021923 -0.28010559 118.73640442 C-0.27081518 109.90404112 -0.24624246 101.07179042 -0.21605712 92.2394765 C-0.1824191 82.17650454 -0.16600355 72.11352694 -0.15097082 62.05051267 C-0.11968994 41.36694582 -0.06698844 20.68348003 0 0 Z " fill="#04314E" transform="translate(232,627)"/>
<path d="M0 0 C106.7678035 0 106.7678035 0 119.25 6.625 C119.91765381 6.97199951 120.58530762 7.31899902 121.27319336 7.67651367 C132.85176137 13.94234819 141.47292253 23.28026989 145.875 35.8125 C149.80495171 49.50705567 148.8154786 63.85927109 142.4375 76.6875 C137.78126793 84.62980109 130.9726435 91.38425902 123 96 C125.94198972 98.29050015 128.98870746 100.21403303 132.1875 102.125 C142.31957017 108.59601548 148.41885744 115.8700766 153 127 C153.56267578 128.33804688 153.56267578 128.33804688 154.13671875 129.703125 C158.0701583 144.72494843 155.00908555 160.94050031 147.75 174.3125 C139.38890352 187.73611693 126.3317157 196.26866678 111 200 C74.59090468 206.61983551 37.00600552 202 0 202 C0 135.34 0 68.68 0 0 Z " fill="#04314D" transform="translate(643,416)"/>
<path d="M0 0 C16.5 0 33 0 50 0 C53.38121074 8.11490577 56.65714101 16.21571942 59.75 24.4375 C60.4692688 26.340861 61.18853759 28.24422201 61.9078064 30.14758301 C62.98328537 32.99528704 64.05677617 35.84373895 65.13024902 38.69219971 C68.04290545 46.4206525 70.95841434 54.14802929 73.875 61.875 C74.22839447 62.81138306 74.58178894 63.74776611 74.94589233 64.71252441 C81.11404541 81.05182402 87.32898436 97.37303514 93.5625 113.6875 C94.0052124 114.8462262 94.4479248 116.00495239 94.90405273 117.1987915 C97.0976445 122.9397855 99.29165767 128.68061835 101.48583984 134.42138672 C104.94840295 143.48111997 108.40939332 152.54144994 111.865448 161.60366821 C112.52187167 163.32434712 113.1786901 165.0448755 113.83596802 166.76522827 C114.14219086 167.56675323 114.4484137 168.3682782 114.76391602 169.1940918 C115.15898094 170.22762032 115.15898094 170.22762032 115.56202698 171.2820282 C119.449314 181.49736795 123.2204915 191.74133406 127 202 C111.49 202 95.98 202 80 202 C77.69 195.296875 75.38 188.59375 73 181.6875 C72.26910156 179.57432373 71.53820312 177.46114746 70.78515625 175.28393555 C70.21057302 173.60998834 69.63633085 171.93592402 69.0625 170.26171875 C68.76021484 169.39180298 68.45792969 168.52188721 68.14648438 167.62561035 C67.86224609 166.79356079 67.57800781 165.96151123 67.28515625 165.10424805 C67.03644775 164.38254929 66.78773926 163.66085052 66.53149414 162.9172821 C66 161 66 161 66 158 C39.27 158 12.54 158 -15 158 C-15.99 161.3 -16.98 164.6 -18 168 C-18.95342432 170.81394948 -19.91951127 173.61653347 -20.91796875 176.4140625 C-21.15084595 177.07237061 -21.38372314 177.73067871 -21.62365723 178.40893555 C-22.47565634 180.81521792 -23.33180376 183.22002988 -24.1875 185.625 C-26.105625 191.02875 -28.02375 196.4325 -30 202 C-45.18 202 -60.36 202 -76 202 C-67.9693206 179.05520173 -67.9693206 179.05520173 -64.609375 170.4296875 C-64.22712769 169.44005005 -63.84488037 168.4504126 -63.4510498 167.43078613 C-62.63913238 165.32938647 -61.82588657 163.2284996 -61.01135254 161.12811279 C-58.80269792 155.43184439 -56.60507683 149.73131762 -54.40625 144.03125 C-53.95582336 142.86427582 -53.50539673 141.69730164 -53.0413208 140.4949646 C-48.40326535 128.47051115 -43.82089895 116.42511312 -39.25 104.375 C-38.85781281 103.34111145 -38.46562561 102.3072229 -38.06155396 101.24200439 C-37.67071625 100.21162048 -37.27987854 99.18123657 -36.87719727 98.11962891 C-36.09651975 96.06152237 -35.31583943 94.00341689 -34.53515625 91.9453125 C-34.15412247 90.9406192 -33.77308868 89.9359259 -33.38050842 88.90078735 C-30.84539407 82.2191983 -28.29939217 75.54184708 -25.74609375 68.8671875 C-16.99109643 45.97228864 -8.4333328 23.01597076 0 0 Z " fill="#026E6F" transform="translate(496,416)"/>
<path d="M0 0 C14.71198646 12.68642311 24.3624226 29.49961302 28.1875 48.625 C28.1875 49.945 28.1875 51.265 28.1875 52.625 C13.9975 52.625 -0.1925 52.625 -14.8125 52.625 C-16.7925 47.18 -16.7925 47.18 -18.8125 41.625 C-24.08745634 30.58011823 -31.32732337 24.69943284 -42.8125 20.625 C-49.13760188 18.81925689 -55.18979473 18.26840837 -61.75 18.3125 C-63.07149048 18.32095947 -63.07149048 18.32095947 -64.41967773 18.32958984 C-70.65416924 18.44627355 -76.09736286 18.96866865 -81.8125 21.625 C-82.7096875 22.0271875 -83.606875 22.429375 -84.53125 22.84375 C-96.99768205 29.00846915 -105.03132336 38.94755104 -110.0625 51.82421875 C-117.59030221 74.76741004 -117.2409991 100.63446929 -106.8125 122.625 C-99.74948727 136.04472418 -89.8291338 143.65846847 -75.64453125 148.765625 C-61.99629532 151.82639147 -46.36302508 150.98328878 -34.125 144.1171875 C-23.21593155 137.13668239 -19.32427715 128.56718382 -13.8125 116.625 C0.0475 116.625 13.9075 116.625 28.1875 116.625 C24.32753628 135.92481858 17.26408076 151.52341643 3.1875 165.625 C2.57519531 166.24890625 1.96289062 166.8728125 1.33203125 167.515625 C-17.53700171 185.37884597 -43.28820866 189.5005535 -68.2265625 188.97265625 C-93.24910326 187.97218493 -116.45665771 176.91537891 -133.8125 158.9296875 C-155.74259709 133.65867718 -160.32715355 102.05412078 -158.8125 69.625 C-156.6197212 43.1193054 -144.08027603 17.86044666 -123.8125 0.625 C-89.26071994 -26.40885278 -34.65108487 -27.39631228 0 0 Z " fill="#026E6F" transform="translate(388.8125,432.375)"/>
<path d="M0 0 C8.188125 -0.0825 16.37625 -0.165 24.8125 -0.25 C28.65612183 -0.30462402 28.65612183 -0.30462402 32.57739258 -0.36035156 C34.64143032 -0.37204986 36.70547739 -0.38223897 38.76953125 -0.390625 C39.81443726 -0.41108887 40.85934326 -0.43155273 41.93591309 -0.45263672 C49.87285479 -0.45634687 58.00000295 0.53939946 64.20979309 5.9118042 C69.29989651 11.31606118 72.09092412 16.84424293 72.5 24.3125 C72.26735848 31.37898606 69.83979844 36.90828396 65.0625 42.109375 C56.55214758 49.91053139 48.01813266 50.15414175 36.9140625 50.09765625 C35.97651123 50.09664917 35.03895996 50.09564209 34.07299805 50.09460449 C30.59031949 50.08939554 27.10765844 50.07543435 23.625 50.0625 C15.82875 50.041875 8.0325 50.02125 0 50 C0 33.5 0 17 0 0 Z " fill="#FDFEFE" transform="translate(685,532)"/>
<path d="M0 0 C7.074375 -0.061875 14.14875 -0.12375 21.4375 -0.1875 C24.76026001 -0.22846802 24.76026001 -0.22846802 28.15014648 -0.27026367 C29.93212338 -0.27903643 31.71410636 -0.28667849 33.49609375 -0.29296875 C34.40008911 -0.30831665 35.30408447 -0.32366455 36.23547363 -0.33947754 C44.87143999 -0.34298667 52.15496778 1.40932179 58.5625 7.38671875 C63.43915253 12.85970107 64.37723369 19.29208244 64.2734375 26.33984375 C63.55966367 33.28384347 60.42402753 38.26480838 55.171875 42.7109375 C48.26516112 46.8102461 42.23109799 47.42252092 34.375 47.29296875 C33.4984375 47.28994751 32.621875 47.28692627 31.71875 47.28381348 C28.47904498 47.26824876 25.23950927 47.22636586 22 47.1875 C14.74 47.125625 7.48 47.06375 0 47 C0 31.49 0 15.98 0 0 Z " fill="#FDFEFE" transform="translate(685,451)"/>
<path d="M0 0 C2.43600617 2.43600617 2.98499057 4.38382191 4.109375 7.640625 C4.52791748 8.83913086 4.94645996 10.03763672 5.37768555 11.27246094 C5.60080414 11.91920776 5.82392273 12.56595459 6.05380249 13.2322998 C7.25418213 16.71120657 8.4722723 20.18387859 9.69140625 23.65625 C10.08082146 24.766586 10.08082146 24.766586 10.47810364 25.89935303 C12.541184 31.75662513 14.67695905 37.5851662 16.83984375 43.40625 C17.32044754 44.70088165 17.32044754 44.70088165 17.8107605 46.02166748 C19.08442116 49.44909109 20.35965793 52.87588003 21.64367676 56.29943848 C22.54122314 58.69293454 23.43309834 61.08848065 24.32421875 63.484375 C24.59556137 64.20177856 24.86690399 64.91918213 25.14646912 65.6583252 C26.23123166 68.58548415 27 70.85052432 27 74 C9.18 74 -8.64 74 -27 74 C-25.10909633 67.69698777 -23.19274137 61.50998773 -20.9609375 55.3359375 C-20.67845657 54.54834045 -20.39597565 53.76074341 -20.10493469 52.94927979 C-19.19788337 50.42345559 -18.28674132 47.89913468 -17.375 45.375 C-16.74714705 43.63200037 -16.11929877 41.88899906 -15.49145508 40.14599609 C-11.93581523 30.28876647 -8.35226151 20.4422584 -4.6875 10.625 C-4.32124512 9.64063965 -3.95499023 8.6562793 -3.57763672 7.64208984 C-3.08094482 6.32265381 -3.08094482 6.32265381 -2.57421875 4.9765625 C-2.29151123 4.22455566 -2.00880371 3.47254883 -1.7175293 2.69775391 C-1 1 -1 1 0 0 Z " fill="#FCFDFD" transform="translate(521,465)"/>
<path d="M0 0 C0.10464125 2.94544337 0.08884105 5.78761788 -0.0234375 8.7265625 C-0.04846344 9.58937836 -0.07348938 10.45219421 -0.09927368 11.34115601 C-0.18158816 14.10283029 -0.27813267 16.86380152 -0.375 19.625 C-0.43322791 21.49476275 -0.49053143 23.36455452 -0.546875 25.234375 C-0.6871839 29.8233226 -0.84025835 34.4116894 -1 39 C-1.33 39 -1.66 39 -2 39 C-2 26.13 -2 13.26 -2 0 C-32.69 0 -63.38 0 -95 0 C-95 -0.33 -95 -0.66 -95 -1 C-82.90899141 -1.17677373 -70.81788801 -1.34274234 -58.72654152 -1.49477577 C-53.11252625 -1.56570754 -47.49861325 -1.64041264 -41.88476562 -1.72363281 C-36.47082595 -1.8037525 -31.0568407 -1.87410207 -25.64268112 -1.93757248 C-23.57329984 -1.96356962 -21.50396032 -1.99313467 -19.43468094 -2.02626419 C-16.54453528 -2.0719366 -13.65450354 -2.10511525 -10.76416016 -2.13525391 C-9.90173203 -2.1517952 -9.03930389 -2.16833649 -8.15074158 -2.18537903 C-2.22810432 -2.22810432 -2.22810432 -2.22810432 0 0 Z " fill="#288284" transform="translate(748,348)"/>
<path d="M0 0 C0.66 0.33 1.32 0.66 2 1 C3.26761762 5.29581527 4 8.50944298 4 13 C-10.19 13 -24.38 13 -39 13 C-38.67 11.68 -38.34 10.36 -38 9 C-38 9.66 -38 10.32 -38 11 C-24.8 11 -11.6 11 2 11 C1.34 8.69 0.68 6.38 0 4 C0 2.68 0 1.36 0 0 Z " fill="#046264" transform="translate(413,472)"/>
<path d="M0 0 C0.66 0.33 1.32 0.66 2 1 C0.84321531 4.47035406 -0.71841662 5.40375592 -3.515625 7.6015625 C-5.7201499 9.67845701 -6.68189456 12.30387524 -8 15 C-10.1875 16.375 -10.1875 16.375 -12 17 C-10.60827683 12.9625531 -8.70711315 10.10184153 -6 6.8125 C-5.29875 5.95269531 -4.5975 5.09289062 -3.875 4.20703125 C-2 2 -2 2 0 0 Z " fill="#085D5E" transform="translate(253,178)"/>
<path d="M0 0 C0.66 0.33 1.32 0.66 2 1 C0.75453595 4.73639216 -0.63404953 5.18756513 -4 7 C-4 4 -4 4 -2 1.8125 C-1.34 1.214375 -0.68 0.61625 0 0 Z " fill="#0E6668" transform="translate(253,178)"/>
</svg>
