<?xml version="1.0" encoding="utf-8"?>
<!-- Generator: Adobe Illustrator 24.1.1, SVG Export Plug-In . SVG Version: 6.00 Build 0)  -->
<svg version="1.1" id="Layer_1" xmlns="http://www.w3.org/2000/svg" xmlns:xlink="http://www.w3.org/1999/xlink" x="0px" y="0px"
	 viewBox="0 0 1080 1080" style="enable-background:new 0 0 1080 1080;" xml:space="preserve">
<style type="text/css">
	.st0{fill:#020203;}
	.st1{fill:#E52520;}
	.st2{fill:#DE4491;}
	.st3{fill:#8B338A;}
	.st4{fill:#332982;}
	.st5{fill:#33245D;}
	.st6{fill:#2B4999;}
	.st7{fill:#3466AF;}
	.st8{fill:#0D9739;}
	.st9{fill:#CDCE35;}
	.st10{fill:#F4E600;}
	.st11{fill:#FBB930;}
	.st12{fill:#F3921D;}
	.st13{fill:#E5231E;}
</style>
<g>
	<circle class="st0" cx="640.67" cy="598.76" r="101.4"/>
	<circle class="st1" cx="690.9" cy="145.34" r="116.75"/>
	<circle class="st2" cx="436.78" cy="187.57" r="113.37"/>
	<circle class="st3" cx="222.72" cy="325.65" r="110.19"/>
	<circle class="st4" cx="135.65" cy="544.18" r="99.22"/>
	<circle class="st5" cx="181.56" cy="756.31" r="93.78"/>
	<circle class="st6" cx="326.89" cy="904.13" r="92.01"/>
	<circle class="st7" cx="517.18" cy="968.23" r="83.18"/>
	<circle class="st8" cx="697.5" cy="964.35" r="73.61"/>
	<circle class="st9" cx="848.71" cy="889.21" r="71.58"/>
	<circle class="st10" cx="954" cy="768.92" r="67.8"/>
	<circle class="st11" cx="986.79" cy="626.49" r="66.49"/>
	<circle class="st12" cx="937.47" cy="494.16" r="59.98"/>
	<circle class="st13" cx="844.49" cy="404.46" r="53.18"/>
	<circle class="st2" cx="737.74" cy="365.63" r="45.14"/>
	<circle class="st3" cx="628.65" cy="365.63" r="45.14"/>
	<circle class="st4" cx="531.4" cy="399.96" r="41.7"/>
	<circle class="st5" cx="456.59" cy="462.59" r="36.14"/>
	<circle class="st6" cx="417.72" cy="541.12" r="33.42"/>
	<circle class="st7" cx="414.69" cy="620.75" r="33.42"/>
	<circle class="st8" cx="443.74" cy="692.98" r="31.22"/>
	<circle class="st9" cx="497.87" cy="747.16" r="27.83"/>
	<circle class="st10" cx="561.95" cy="771.74" r="24.58"/>
	<circle class="st11" cx="628.51" cy="775.01" r="24.6"/>
	<circle class="st12" cx="685.47" cy="755.06" r="19.93"/>
	<circle class="st13" cx="731.37" cy="721.59" r="18.38"/>
	<circle class="st2" cx="758.76" cy="677.87" r="18.38"/>
	<circle class="st3" cx="768.16" cy="631.54" r="15.69"/>
	<circle class="st4" cx="756.06" cy="587.33" r="15.69"/>
	<circle class="st5" cx="732.52" cy="554.41" r="14.15"/>
	<circle class="st6" cx="706.35" cy="531.86" r="12.08"/>
	<circle class="st7" cx="674.75" cy="519.78" r="12.08"/>
	<circle class="st8" cx="646.19" cy="518.35" r="10.65"/>
	<circle class="st9" cx="618.65" cy="524.66" r="10.01"/>
	<circle class="st10" cx="596.07" cy="538.54" r="9.54"/>
	<circle class="st11" cx="578.38" cy="559.02" r="9.54"/>
	<circle class="st12" cx="568.84" cy="580.15" r="8.51"/>
	<circle class="st13" cx="564.19" cy="601.65" r="8.02"/>
	<circle class="st2" cx="565.87" cy="620.69" r="7.33"/>
	<circle class="st3" cx="573.57" cy="638.9" r="7.33"/>
	<circle class="st4" cx="584.22" cy="654.56" r="7.33"/>
	<circle class="st5" cx="599.41" cy="666.8" r="7.33"/>
	<circle class="st6" cx="616.6" cy="675.23" r="6.42"/>
	<circle class="st7" cx="634.44" cy="676.91" r="6.23"/>
	<circle class="st8" cx="652.45" cy="672.09" r="6.26"/>
</g>
</svg>
